<svg width="24" height="24" viewBox="0 0 24 24" fill="none" xmlns="http://www.w3.org/2000/svg">
<path d="M14.5 13.5C14.7761 13.2239 15.2238 13.2239 15.5 13.5C15.7761 13.7761 15.7761 14.2238 15.5 14.5L12.707 17.2929C12.3165 17.6834 11.6834 17.6834 11.2929 17.2929L8.49998 14.5C8.22391 14.2238 8.22386 13.7761 8.49998 13.5C8.77609 13.2239 9.22383 13.2239 9.49998 13.5L12 16L14.5 13.5ZM14.5 7.49998C14.7761 7.22386 15.2238 7.22391 15.5 7.49998C15.7761 7.77612 15.7761 8.22383 15.5 8.49998L12.707 11.2929C12.3165 11.6834 11.6834 11.6834 11.2929 11.2929L8.49998 8.49998C8.22391 8.22383 8.22386 7.77609 8.49998 7.49998C8.77609 7.22386 9.22383 7.22391 9.49998 7.49998L12 9.99998L14.5 7.49998Z" fill="#41F6D7"/>
</svg>
